<svg width="32" height="32" viewBox="0 0 32 32" fill="none" xmlns="http://www.w3.org/2000/svg">
<path d="M15.3334 1.33325C23.06 1.33325 29.3334 7.60665 29.3334 15.3333C29.3334 23.0599 23.06 29.3333 15.3334 29.3333C7.60677 29.3333 1.33337 23.0599 1.33337 15.3333C1.33337 7.60665 7.60677 1.33325 15.3334 1.33325Z" fill="#FEFBFF"/>
<path d="M15.3334 2.08325C22.6458 2.08325 28.5834 8.02087 28.5834 15.3333C28.5834 22.6456 22.6458 28.5833 15.3334 28.5833C8.02099 28.5833 2.08337 22.6456 2.08337 15.3333C2.08337 8.02087 8.02099 2.08325 15.3334 2.08325Z" fill="#FEFBFF" stroke="#160037" stroke-width="1.5"/>
<path d="M19.5215 12.4724L16.7451 15.2493L19.5215 18.0262C19.935 18.4398 19.935 19.1088 19.5215 19.5218C19.3153 19.728 19.0455 19.8317 18.7746 19.8317C18.5042 19.8317 18.2327 19.7286 18.0265 19.5218L15.249 16.7449L12.4715 19.5218C12.2653 19.728 11.9955 19.8317 11.7246 19.8317C11.4542 19.8317 11.1833 19.7286 10.9765 19.5218C10.5635 19.1088 10.5635 18.4398 10.9765 18.0262L13.754 15.2493L10.9765 12.4724C10.5635 12.0594 10.5635 11.3892 10.9765 10.9762C11.3895 10.5633 12.0585 10.5633 12.4715 10.9762L15.249 13.7537L18.0265 10.9762C18.4395 10.5633 19.1085 10.5633 19.5215 10.9762C19.935 11.3892 19.935 12.0594 19.5215 12.4724Z" fill="#160037"/>
</svg>
