<svg width="163" height="163" viewBox="0 0 163 163" fill="none" xmlns="http://www.w3.org/2000/svg">
<path d="M125.385 6.26904H37.6155C28.9639 6.26904 21.9424 13.3219 21.9424 21.9421V141.057C21.9424 149.709 28.9639 156.731 37.6155 156.731H91.4682C91.1012 155.726 90.9104 154.665 90.9039 153.596V128.519C90.9039 116.419 100.747 106.577 112.846 106.577H137.923C139.008 106.577 140.061 106.79 141.058 107.15V21.9421C141.058 13.3219 134.005 6.26904 125.385 6.26904ZM53.2823 25.083H109.705C110.537 25.083 111.334 25.4133 111.922 26.0011C112.51 26.589 112.84 27.3863 112.84 28.2176C112.84 29.049 112.51 29.8463 111.922 30.4341C111.334 31.022 110.537 31.3522 109.705 31.3522H53.2823C52.4509 31.3522 51.6536 31.022 51.0658 30.4341C50.4779 29.8463 50.1477 29.049 50.1477 28.2176C50.1477 27.3863 50.4779 26.589 51.0658 26.0011C51.6536 25.4133 52.4509 25.083 53.2823 25.083ZM125.378 100.314H37.6092C36.7778 100.314 35.9805 99.9835 35.3927 99.3957C34.8048 98.8078 34.4746 98.0105 34.4746 97.1792C34.4746 96.3478 34.8048 95.5505 35.3927 94.9626C35.9805 94.3748 36.7778 94.0445 37.6092 94.0445H125.378C126.21 94.0445 127.007 94.3748 127.595 94.9626C128.183 95.5505 128.513 96.3478 128.513 97.1792C128.513 98.0105 128.183 98.8078 127.595 99.3957C127.007 99.9835 126.21 100.314 125.378 100.314ZM125.378 78.3715H37.6092C36.7778 78.3715 35.9805 78.0412 35.3927 77.4534C34.8048 76.8655 34.4746 76.0682 34.4746 75.2368C34.4746 74.4055 34.8048 73.6082 35.3927 73.0203C35.9805 72.4325 36.7778 72.1022 37.6092 72.1022H125.378C126.21 72.1022 127.007 72.4325 127.595 73.0203C128.183 73.6082 128.513 74.4055 128.513 75.2368C128.513 76.0682 128.183 76.8655 127.595 77.4534C127.007 78.0412 126.21 78.3715 125.378 78.3715ZM125.378 56.4292H37.6092C36.7778 56.4292 35.9805 56.0989 35.3927 55.511C34.8048 54.9232 34.4746 54.1259 34.4746 53.2945C34.4746 52.4632 34.8048 51.6659 35.3927 51.078C35.9805 50.4902 36.7778 50.1599 37.6092 50.1599H125.378C126.21 50.1599 127.007 50.4902 127.595 51.078C128.183 51.6659 128.513 52.4632 128.513 53.2945C128.513 54.1259 128.183 54.9232 127.595 55.511C127.007 56.0989 126.21 56.4292 125.378 56.4292Z" fill="#D9D9D9"/>
<path d="M140.117 118.206L102.502 155.822C101.906 156.417 101.122 156.731 100.307 156.731C99.9 156.731 99.4925 156.668 99.085 156.511C97.9252 156.01 97.1729 154.881 97.1729 153.596V128.519C97.1729 119.899 104.194 112.846 112.846 112.846H137.923C139.177 112.846 140.336 113.63 140.807 114.79C141.308 115.949 141.026 117.297 140.117 118.206Z" fill="#D9D9D9"/>
</svg>
