<svg width="18" height="18" viewBox="0 0 18 18" fill="none" xmlns="http://www.w3.org/2000/svg">
<path d="M8.38336 14.6768C8.45217 14.7767 8.54423 14.8584 8.65163 14.9148C8.75903 14.9713 8.87853 15.0008 8.99986 15.0008C9.12119 15.0008 9.2407 14.9713 9.34809 14.9148C9.45549 14.8584 9.54756 14.7767 9.61636 14.6768L16.3664 4.92675C16.4445 4.81429 16.4903 4.68257 16.4988 4.5459C16.5074 4.40924 16.4783 4.27284 16.4147 4.15155C16.3512 4.03025 16.2556 3.92869 16.1384 3.85789C16.0212 3.7871 15.8868 3.74979 15.7499 3.75H2.24986C2.11324 3.75057 1.97936 3.78836 1.86262 3.85932C1.74588 3.93029 1.65069 4.03173 1.58729 4.15275C1.52389 4.27376 1.49467 4.40977 1.50279 4.54615C1.51091 4.68253 1.55605 4.81411 1.63336 4.92675L8.38336 14.6768Z" fill="#D9D9D9"/>
</svg>
