<svg width="24" height="24" viewBox="0 0 24 24" fill="none" xmlns="http://www.w3.org/2000/svg">
<path d="M20.0003 19.2447C18.3803 22.3739 14.4065 23.0432 14.2357 23.0709C14.2126 23.0755 14.1849 23.0755 14.1619 23.0755C14.1342 23.0755 14.1065 23.0709 14.0788 23.0662C14.0603 23.0662 14.0419 23.0616 14.0234 23.0524C13.9894 23.0473 13.9574 23.033 13.9311 23.0109C13.908 22.997 13.8849 22.9832 13.8665 22.9647C13.8466 22.9549 13.8292 22.9407 13.8157 22.9232C13.8111 22.9185 13.8065 22.9139 13.8065 22.9093C13.7557 22.8447 13.7234 22.7709 13.7096 22.697C13.7049 22.6924 13.7049 22.6924 13.7049 22.6878C13.7003 22.6647 13.7003 22.6416 13.7003 22.6185C13.7003 22.5909 13.7049 22.5632 13.7096 22.5355C13.7096 22.517 13.7188 22.4939 13.7234 22.4709C13.728 22.4616 13.728 22.457 13.728 22.4524C13.7419 22.4293 13.7511 22.4062 13.7649 22.3878C13.7788 22.3647 13.7926 22.3416 13.8111 22.3232C13.8203 22.3047 13.8388 22.2862 13.8572 22.2724L13.8711 22.2585C17.0188 19.4524 16.2896 16.8262 16.2572 16.7155C16.2434 16.6832 16.2388 16.6462 16.2342 16.6139C16.0865 14.297 14.268 11.7124 13.1234 10.3047C12.9065 12.4924 11.5542 15.7832 11.2126 16.5816C11.1249 16.7893 10.8988 16.9001 10.6865 16.8539C10.5808 16.8302 10.4868 16.77 10.4209 16.684C10.3551 16.5979 10.3217 16.4914 10.3265 16.3832C10.3542 15.6585 9.76801 14.6939 9.25109 14.0062C9.02032 14.5878 8.57724 15.4878 7.73724 16.9139C7.3634 17.5509 7.14647 18.2016 7.0957 18.8385C6.9157 21.1324 8.39263 21.977 8.76186 22.1478C8.81263 22.1709 8.84032 22.1801 8.84493 22.1801C8.91417 22.2078 8.97417 22.2447 9.02032 22.3001C9.03878 22.3139 9.05263 22.3324 9.06647 22.3509C9.08955 22.3924 9.11263 22.4339 9.12186 22.4755C9.14955 22.5447 9.15417 22.6185 9.14032 22.6924C9.1357 22.7201 9.12647 22.7478 9.11724 22.7755C9.06647 22.9139 8.9557 23.0155 8.82186 23.0524C8.79878 23.0616 8.7757 23.0662 8.75263 23.0709C8.72955 23.0755 8.70647 23.0755 8.6834 23.0755C8.63263 23.0755 8.57724 23.0662 8.52647 23.0478H8.51724C6.08032 22.1016 4.47878 20.6662 3.7634 18.7832C2.66493 15.8985 3.98032 12.7878 4.59417 11.5832C4.9034 10.9832 5.30032 10.3739 5.84493 9.66316C8.84955 5.7447 9.67109 1.34624 9.68032 1.3047C9.70801 1.13393 9.83263 0.995466 9.99878 0.944697C10.1603 0.893928 10.3403 0.940081 10.4649 1.06008C13.0357 3.69085 15.0434 5.79547 16.4234 7.31854C17.6419 8.66162 18.6249 10.0832 19.3449 11.5555C20.8403 14.6062 21.0619 17.1909 20.0003 19.2447Z" fill="white"/>
</svg>
