<svg width="160" height="160" viewBox="0 0 160 160" fill="none" xmlns="http://www.w3.org/2000/svg">
<path fill-rule="evenodd" clip-rule="evenodd" d="M160 80C160 124.181 124.181 160 80 160C35.8187 160 0 124.181 0 80C0 35.8187 35.8187 0 80 0C124.181 0 160 35.8187 160 80ZM74.6667 53.3333C71.8377 53.3333 69.1246 54.4571 67.1242 56.4575C65.1238 58.4579 64 61.171 64 64C64 66.829 65.1238 69.5421 67.1242 71.5425C69.1246 73.5429 71.8377 74.6667 74.6667 74.6667V53.3333ZM85.3333 42.6667V37.3333H74.6667V42.6667C69.0087 42.6667 63.5825 44.9143 59.5817 48.9151C55.581 52.9158 53.3333 58.342 53.3333 64C53.3333 69.658 55.581 75.0842 59.5817 79.0849C63.5825 83.0857 69.0087 85.3333 74.6667 85.3333V106.667C70.0267 106.667 66.0747 103.707 64.6027 99.5573C64.3843 98.8785 64.032 98.2503 63.5666 97.71C63.1012 97.1697 62.5321 96.7282 61.8931 96.4116C61.2541 96.0951 60.5581 95.9099 59.8463 95.867C59.1345 95.8241 58.4213 95.9244 57.7489 96.162C57.0765 96.3996 56.4586 96.7695 55.9317 97.2501C55.4048 97.7306 54.9796 98.312 54.6813 98.9597C54.383 99.6074 54.2176 100.308 54.195 101.021C54.1723 101.734 54.2928 102.444 54.5493 103.109C56.0205 107.269 58.745 110.871 62.3477 113.418C65.9505 115.965 70.2543 117.333 74.6667 117.333V122.667H85.3333V117.333C90.9913 117.333 96.4175 115.086 100.418 111.085C104.419 107.084 106.667 101.658 106.667 96C106.667 90.342 104.419 84.9158 100.418 80.9151C96.4175 76.9143 90.9913 74.6667 85.3333 74.6667V53.3333C89.9733 53.3333 93.9253 56.2933 95.3973 60.4427C95.6157 61.1215 95.968 61.7497 96.4334 62.29C96.8988 62.8303 97.4679 63.2718 98.1069 63.5884C98.7459 63.9049 99.4419 64.0901 100.154 64.133C100.866 64.1759 101.579 64.0756 102.251 63.838C102.924 63.6005 103.541 63.2305 104.068 62.7499C104.595 62.2694 105.02 61.6881 105.319 61.0403C105.617 60.3926 105.782 59.6916 105.805 58.9789C105.828 58.2661 105.707 57.556 105.451 56.8907C103.98 52.7308 101.255 49.1293 97.6523 46.5819C94.0495 44.0346 89.7457 42.6667 85.3333 42.6667ZM85.3333 85.3333V106.667C88.1623 106.667 90.8754 105.543 92.8758 103.542C94.8762 101.542 96 98.829 96 96C96 93.171 94.8762 90.4579 92.8758 88.4575C90.8754 86.4571 88.1623 85.3333 85.3333 85.3333Z" fill="#D9D9D9"/>
</svg>
