<svg width="25" height="128" viewBox="0 0 25 128" fill="none" xmlns="http://www.w3.org/2000/svg">
<path d="M2 1C2 0.447715 1.55228 0 1 0C0.447715 0 0 0.447715 0 1H2ZM1 111.5H0V111.542L0.00345427 111.583L1 111.5ZM24.5 121L14.3143 115.561L14.6966 127.101L24.5 121ZM0 1V111.5H2V1H0ZM0.00345427 111.583C0.259982 114.661 0.910028 116.993 2.12148 118.703C3.35742 120.448 5.09262 121.429 7.25746 121.97L7.74254 120.03C5.90738 119.571 4.64258 118.802 3.75352 117.547C2.83997 116.257 2.24002 114.339 1.99655 111.417L0.00345427 111.583ZM7.25746 121.97C7.98288 122.151 9.22493 122.238 10.6272 122.281C12.0659 122.325 13.7815 122.323 15.5191 122.298L15.4897 120.298C13.7657 120.323 12.0838 120.324 10.688 120.282C9.25575 120.238 8.2264 120.151 7.74254 120.03L7.25746 121.97Z" fill="#D9D9D9"/>
</svg>
