<svg width="167" height="133" viewBox="0 0 167 133" fill="none" xmlns="http://www.w3.org/2000/svg">
<g clip-path="url(#clip0_232_2163)">
<path d="M139.602 1.82612C142.054 -0.608663 146.021 -0.608663 148.239 1.82586L164.939 18.4485C166.348 19.6175 167 21.2046 167 22.8567C167 24.5115 166.348 26.1064 164.939 27.0416L148.239 43.6666C146.021 46.3162 142.054 46.3162 139.602 43.6666C137.175 41.4586 137.175 37.5101 139.602 35.0683L145.629 28.8599H100.2C96.7295 28.8599 93.9375 26.2882 93.9375 22.8567C93.9375 19.4149 96.7295 16.6224 100.2 16.6224L145.629 16.3912L139.602 10.6426C137.175 8.20856 137.175 4.26012 139.602 1.82612ZM27.1636 97.6978L21.3812 103.906L66.5652 103.672C70.2705 103.672 72.8277 106.686 72.8277 109.907C72.8277 113.57 70.2705 116.141 66.5652 116.141L21.3838 116.375L27.1636 122.35C29.8252 124.791 29.8252 128.74 27.1636 130.948C24.9456 133.597 20.9794 133.597 18.5344 130.948L1.83413 114.323C0.65965 113.388 -0.00026086 111.803 7.73542e-08 109.907C7.73542e-08 108.478 0.659911 106.894 1.83439 105.725L18.5344 89.0996C20.9794 86.6838 24.9456 86.6838 27.1636 89.0996C29.8252 91.5414 29.8252 95.4898 27.1636 97.6978ZM24.8152 16.625H88.1708C87.1792 18.4901 86.6313 20.6098 86.6313 22.6256C86.6313 30.3146 92.7111 36.1334 100.2 36.1334H125.537C126.398 40.9131 129.138 44.8095 132.922 47.2513C133.365 47.8748 133.887 48.4722 134.435 49.0437C139.732 54.317 148.343 54.317 153.64 49.0437L158.65 44.0302V99.75C158.65 108.92 151.161 116.375 141.95 116.375H78.8292C79.8208 114.505 80.1339 112.401 80.1339 109.907C80.1339 102.685 74.2889 96.399 66.5652 96.399L41.463 96.6328C40.5758 92.0869 37.862 88.1904 34.0784 85.7486C33.6348 85.1252 33.113 84.5277 32.565 83.9562C27.268 78.683 18.6675 78.683 13.3678 83.9562L8.11516 88.9697V33.25C8.11516 24.0673 15.8259 16.625 24.8152 16.625ZM24.8152 49.875C34.2611 49.875 41.5152 42.4197 41.5152 33.25H24.8152V49.875ZM141.95 99.75V83.125C132.739 83.125 125.25 90.5802 125.25 99.75H141.95ZM83.2652 91.4375C97.3297 91.4375 108.55 80.2675 108.55 66.5C108.55 52.4986 97.3297 41.5625 83.2652 41.5625C69.4355 41.5625 58.2152 52.4986 58.2152 66.5C58.2152 80.2675 69.4355 91.4375 83.2652 91.4375Z" fill="#D9D9D9"/>
</g>
<defs>
<clipPath id="clip0_232_2163">
<rect width="167" height="133" fill="white"/>
</clipPath>
</defs>
</svg>
